<svg id="Capa_1" enable-background="new 0 0 512.001 512.001" height="512" viewBox="0 0 512.001 512.001" width="512" xmlns="http://www.w3.org/2000/svg"><g><g><path d="m490.45 338.59c-.09.25-.18.49-.27.74-34.25 96.26-126.17 165.17-234.18 165.17s-199.93-68.91-234.18-165.17c-.09-.25-.18-.49-.27-.74z" fill="#0ab69f"/><path d="m445.45 338.59c-.09.25-.18.49-.27.74-31.845 89.5-113.547 155.344-211.68 164.153 7.412.665 14.915 1.017 22.5 1.017 108.01 0 199.93-68.91 234.18-165.17.09-.25.18-.49.27-.74z" fill="#01998d"/><path d="m490.45 173.41h-468.9c34.05-96.64 126.16-165.91 234.45-165.91s200.4 69.27 234.45 165.91z" fill="#fe7d43"/><path d="m256 7.5c-7.585 0-15.088.352-22.5 1.017 98.406 8.833 180.285 75.022 211.95 164.893h45c-34.05-96.64-126.16-165.91-234.45-165.91z" fill="#fd6930"/><path d="m486.8 348.28h-461.6c-11.604-29.02-17.7-59.645-17.7-92.28 0-32.319 6.07-62.791 17.4-91.54h462.2c22.94 57.551 22.827 126.097-.3 183.82z" fill="#f5f8f9"/><path d="m487.1 164.46h-45c22.78 57.488 22.942 126.284-.3 183.82h45c23.646-58.778 23.471-125.251.3-183.82z" fill="#e8edf2"/></g><path d="m256 247.221c-3.826 0-7.08 2.447-8.283 5.861-.321.913-.496 1.895-.496 2.918s.175 2.005.496 2.918c.003.009.006.017.01.026 1.21 3.401 4.457 5.835 8.273 5.835s7.063-2.435 8.273-5.835c.003-.009.006-.017.01-.026.321-.913.496-1.895.496-2.918s-.175-2.005-.496-2.918c-1.203-3.414-4.457-5.861-8.283-5.861zm48.275-39.004c-.078-.086-.15-.175-.233-.258-.081-.081-.167-.151-.251-.227-12.465-12.314-29.515-19.673-47.791-19.673-37.81 0-67.941 30.576-67.941 67.941 0 36.58 30.933 67.941 67.941 67.941 36.978 0 67.941-31.027 67.941-67.941 0-17.806-7.834-34.817-19.666-47.783zm-5.916 79.536-14.517-14.517c-2.929-2.929-7.678-2.929-10.606 0-2.929 2.929-2.929 7.678 0 10.606l14.503 14.503c-7.025 5.259-15.34 8.774-24.239 10.051v-11.405c0-4.142-3.358-7.5-7.5-7.5s-7.5 3.358-7.5 7.5v11.405c-8.897-1.277-17.21-4.792-24.236-10.054l14.5-14.5c2.929-2.929 2.929-7.678 0-10.606-2.929-2.929-7.678-2.929-10.606 0l-14.512 14.512c-5.275-7.003-8.813-15.467-10.05-24.248h9.666c4.142 0 7.5-3.358 7.5-7.5s-3.358-7.5-7.5-7.5h-9.666c1.235-8.754 4.784-17.282 10.042-24.256l14.52 14.52c2.929 2.929 7.677 2.929 10.606 0s2.929-7.678 0-10.606l-14.507-14.507c7.024-5.259 15.338-8.772 24.242-10.048v12.174c0 4.142 3.358 7.5 7.5 7.5s7.5-3.358 7.5-7.5v-12.174c8.905 1.276 17.219 4.789 24.243 10.048l-14.507 14.507c-2.929 2.929-2.929 7.678 0 10.606 2.929 2.929 7.678 2.929 10.606 0l14.52-14.52c5.243 6.964 8.815 15.503 10.042 24.256h-10.115c-4.142 0-7.5 3.358-7.5 7.5s3.358 7.5 7.5 7.5h10.116c-1.218 8.73-4.806 17.291-10.045 24.253zm-42.359-287.753c-141.449 0-256.038 115.508-256 256 .014 53.215 17.486 107.808 49.649 151.536 2.471 3.36 7.177 4.031 10.485 1.598 3.337-2.454 4.052-7.148 1.598-10.485-9.874-13.424-18.29-27.781-25.16-42.868h438.87c-38.436 84.859-125.809 141.219-219.442 141.219-67.279 0-130.919-27.853-176.592-76.999-2.819-3.034-7.564-3.21-10.6-.39-3.035 2.819-3.209 7.565-.39 10.6 48.194 51.874 116.545 81.789 187.582 81.789 134.792 0 255.655-107.327 256-256 .327-141.23-115.038-256-256-256zm225.661 340.78h-451.321c-.148-.395-.289-.792-.435-1.188-9.82-26.561-14.905-54.226-14.905-83.592 0-28.887 5.063-57.201 15.057-84.04h348.798c4.142 0 7.5-3.358 7.5-7.5s-3.358-7.5-7.5-7.5h-342.63c38.635-85.684 124.538-141.96 219.775-141.96s181.14 56.276 219.775 141.96h-66.92c-4.142 0-7.5 3.358-7.5 7.5s3.358 7.5 7.5 7.5h73.088c20.04 53.82 20.015 114.756-.282 168.82z"/></g></svg>