<svg xmlns="http://www.w3.org/2000/svg" xmlns:xlink="http://www.w3.org/1999/xlink" width="100" height="100" viewBox="0 0 100 100">
  <defs>
    <clipPath id="clip-virus">
      <rect width="100" height="100"/>
    </clipPath>
  </defs>
  <g id="virus" clip-path="url(#clip-virus)">
    <g id="virus-2" data-name="virus" transform="translate(0 -4.053)">
      <g id="XMLID_107_" transform="translate(0 4.053)">
        <g id="Group_1" data-name="Group 1" transform="translate(0 0)">
          <path id="Path_1" data-name="Path 1" d="M99.973,49.557c.365,4.78-2.959,9.024-7.423,9.477a7.905,7.905,0,0,1-7.937-4.718l-4.051.361L77.5,56.17a2.335,2.335,0,0,0-1.277,1.793,27.542,27.542,0,0,1-1.542,6.027,2.349,2.349,0,0,0,.132,1.979l1.09,1.971L78.935,70a5.388,5.388,0,0,1,4.986.568,5.55,5.55,0,0,1,1.286,7.931,5.43,5.43,0,0,1-7.093,1.388A5.5,5.5,0,0,1,75.493,75.9l-3.358-2.278-2.113-.261a2.416,2.416,0,0,0-1.977.674,27.36,27.36,0,0,1-5.987,4.375,2.434,2.434,0,0,0-1.261,2l-.268,4.33,1.329,5.334A6.828,6.828,0,1,1,53.609,98.8,6.9,6.9,0,0,1,55.3,91.779l-1.335-5.365-2.062-3.353a3.011,3.011,0,0,0-2.58-1.43H49.31a27.025,27.025,0,0,1-5.281-.522,2.993,2.993,0,0,0-2.782.883L38.523,84.9l-3.05,6.4A5.561,5.561,0,0,1,35.5,96.13a5.422,5.422,0,0,1-7.588,2.4,5.567,5.567,0,0,1-2.363-6.878,5.456,5.456,0,0,1,3.814-3.286l3.069-6.442.6-4.323a2.311,2.311,0,0,0-.811-2.106,27.651,27.651,0,0,1-6.171-7.154,2.26,2.26,0,0,0-1.921-1.1l-4.268-.042-4.672,1.486A7.686,7.686,0,0,1,9.9,75.188,7.6,7.6,0,0,1,.373,70.232,7.766,7.766,0,0,1,5.22,60.521a7.551,7.551,0,0,1,7.648,1.737l4.959-1.578,3.622-2.611a1.894,1.894,0,0,0,.772-1.7q-.09-1.105-.091-2.232A27.591,27.591,0,0,1,24.6,42.693a1.9,1.9,0,0,0-.019-1.605l-1.073-2.219L20.6,36.645a5.388,5.388,0,0,1-4.947-.845,5.553,5.553,0,0,1-.85-7.991,5.43,5.43,0,0,1,7.159-.987,5.5,5.5,0,0,1,2.4,4.121l3.228,2.463,3.252.587A27.209,27.209,0,0,1,39,28.7l.764-4.693L38.8,19.165a7.857,7.857,0,0,1-5.791-5.9,7.712,7.712,0,0,1,6.321-9.058,8.066,8.066,0,0,1,9.5,6.023,7.529,7.529,0,0,1-3.347,7.862l.91,4.572,2.235,3.607a.8.8,0,0,0,.677.378h0a26.765,26.765,0,0,1,14,3.941.781.781,0,0,0,.739.042l3.5-1.641,4.086-4.471a5.539,5.539,0,0,1,1.381-4.586,5.406,5.406,0,0,1,7.945-.058,5.586,5.586,0,0,1,.171,7.407,5.409,5.409,0,0,1-4.53,1.885l-4.086,4.471-1.327,3.611a.806.806,0,0,0,.1.747A27.464,27.464,0,0,1,75.08,45.4a2.333,2.333,0,0,0,1.562,1.518l3.323.941,4.317-.386a8.368,8.368,0,0,1,6.949-5.753c4.464-.453,8.379,3.056,8.742,7.837Z" transform="translate(0 -4.053)" fill="#040404"/>
        </g>
      </g>
      <g id="XMLID_8_" transform="translate(30.078 34.941)">
        <g id="Group_2" data-name="Group 2">
          <circle id="Ellipse_1" data-name="Ellipse 1" cx="19.211" cy="19.211" r="19.211" fill="#fff"/>
        </g>
      </g>
      <path id="Path_2" data-name="Path 2" d="M147.272,165.674a19.216,19.216,0,0,1,16.284-18.99,19.211,19.211,0,1,0,0,37.979A19.216,19.216,0,0,1,147.272,165.674Z" transform="translate(-111.831 -111.522)" fill="#6d6d6d"/>
      <g id="Group_3" data-name="Group 3" transform="translate(9.275 5.451)">
        <circle id="Ellipse_2" data-name="Ellipse 2" cx="5.471" cy="5.471" r="5.471" transform="translate(0 0)"/>
        <path id="Path_3" data-name="Path 3" d="M3.614,0A3.614,3.614,0,1,1,0,3.614,3.614,3.614,0,0,1,3.614,0Z" transform="translate(0.362 79.572)"/>
        <circle id="Ellipse_4" data-name="Ellipse 4" cx="5.323" cy="5.323" r="5.323" transform="translate(69.542 83.799)"/>
        <circle id="Ellipse_5" data-name="Ellipse 5" cx="4.962" cy="4.962" r="4.962" transform="translate(28.798 38.134)"/>
        <circle id="Ellipse_6" data-name="Ellipse 6" cx="3.378" cy="3.378" r="3.378" transform="translate(34.647 56.194)"/>
        <circle id="Ellipse_7" data-name="Ellipse 7" cx="2.836" cy="2.836" r="2.836" transform="translate(46.484 45.929)"/>
      </g>
    </g>
  </g>
</svg>
